<svg width="471" height="471" viewBox="0 0 471 471" fill="none" xmlns="http://www.w3.org/2000/svg">
<path d="M471 0H5.72205e-06V471H471V0Z" fill="#1379BC"/>
<path d="M221 417L228 273L180 409L152 398L214 267L118 375L96 353L204 257L73 319L62 291L198 243L54 250V220L198 228L62 179L73 152L204 214L96 117L118 96L214 203L152 73L180 61L228 198L221 53H251L243 197L292 61L319 73L257 203L354 96L375 117L268 214L398 152L410 179L273 228L418 220V250L273 243L410 291L398 319L268 257L375 353L354 375L257 267L319 398L292 409L243 273L251 417H221Z" fill="#EA9325"/>
</svg>
